<svg width="159" height="130" viewBox="0 0 159 130" fill="none" xmlns="http://www.w3.org/2000/svg">
<path d="M116.833 88.9168C116.833 67.976 99.8575 51.0002 78.9167 51.0002C57.9759 51.0002 41 67.976 41 88.9168C41 109.858 57.9759 126.833 78.9167 126.833C99.8575 126.833 116.833 109.858 116.833 88.9168Z" stroke="#FFC300" stroke-width="5"/>
<path d="M63.7506 90.8123L73.2298 100.292L94.084 77.5415" stroke="#FFC300" stroke-width="5"/>
<path d="M94.5692 74.6626C95.02 75.0315 88.3393 84.0211 79.6503 94.7321L74.3768 101.126L73.6527 102L72.8876 101.208C66.0566 94.1992 61.4525 89.0077 61.7804 88.6798C62.1083 88.3519 67.3135 92.9833 74.3084 99.7733L72.833 99.9236L77.9972 93.4615C86.6862 82.6822 94.1047 74.2937 94.5692 74.6626Z" fill="white"/>
<path d="M127.768 75.3327C126.703 71.5756 121.825 71.9445 121.825 71.9445L121.948 74.5539C124.776 74.0621 126.525 77.3683 126.525 77.3683L127.768 75.3327Z" fill="#FFC300"/>
<path d="M24.155 83.2287C23.103 79.4716 18.2121 79.8269 18.2121 79.8269L18.3487 82.45C21.1767 81.9581 22.9254 85.2643 22.9254 85.2643L24.155 83.2287Z" fill="#E0E0E0"/>
<path d="M81.2207 31.2456C86.8905 32.967 90.4152 26.4366 90.4152 26.4366L86.9724 24.4692C85.2783 28.4722 79.6223 28.0077 79.6223 28.0077L81.2207 31.2456Z" fill="#E0E0E0"/>
<path d="M49.7848 38.2808C47.148 38.5677 46.8338 41.8739 46.8338 41.8739L48.5962 42.0788C48.5962 40.1388 51.0144 39.3464 51.0144 39.3464L49.7848 38.2808Z" fill="#FFC300"/>
<path d="M158.453 62.4895C158.835 59.8664 155.72 58.7324 155.72 58.7324L155.078 60.3855C156.964 60.8637 157.141 63.4048 157.141 63.4048L158.453 62.4895Z" fill="#E0E0E0"/>
<path d="M65.1681 3.75705C65.5506 1.13395 62.4357 0 62.4357 0L61.7936 1.66676C63.6789 2.14493 63.8565 4.6724 63.8565 4.6724L65.1681 3.75705Z" fill="#FFC300"/>
<path d="M0.0281523 46.0681C-0.436355 50.1667 5.00112 51.1777 5.00112 51.1777L5.98478 48.4453C2.71957 48.1447 2.25504 44.3467 2.25504 44.3467L0.0281523 46.0681Z" fill="#FFC300"/>
<path d="M121.292 31.1629C123.942 31.3132 124.789 28.1027 124.789 28.1027L123.082 27.6108C122.767 29.5235 120.254 29.9197 120.254 29.9197L121.292 31.1629Z" fill="#FFC300"/>
<path d="M135.761 41.9559C135.05 42.1551 134.31 42.2245 133.575 42.1608C132.84 42.226 132.099 42.1566 131.389 41.9559C132.831 41.6644 134.318 41.6644 135.761 41.9559Z" fill="#E0E0E0"/>
<path d="M138.083 36.0127C138.356 37.4755 138.356 38.9764 138.083 40.4392C137.791 38.9781 137.791 37.4738 138.083 36.0127Z" fill="#E0E0E0"/>
<path d="M140.542 41.8058C141.252 41.6066 141.993 41.5372 142.728 41.6009C143.463 41.5357 144.203 41.6051 144.914 41.8058C143.471 42.0973 141.984 42.0973 140.542 41.8058Z" fill="#E0E0E0"/>
<path d="M138.233 47.7624C137.941 46.2967 137.941 44.788 138.233 43.3223C138.506 44.7897 138.506 46.295 138.233 47.7624Z" fill="#E0E0E0"/>
<path d="M141.757 45.2754C141.675 45.3437 141.252 44.9885 140.815 44.483C140.377 43.9775 140.118 43.4857 140.2 43.4174C140.282 43.3491 140.719 43.6906 141.143 44.2098C141.566 44.7289 141.853 45.1251 141.757 45.2754Z" fill="#E0E0E0"/>
<path d="M141.553 38.4453C141.635 38.5409 141.348 38.9645 140.897 39.4153C140.446 39.8662 140.023 40.1667 139.941 40.0847C139.859 40.0028 140.146 39.5656 140.596 39.1148C141.047 38.6639 141.471 38.4453 141.553 38.4453Z" fill="#E0E0E0"/>
<path d="M136.552 40.1797C136.47 40.2754 136.061 40.0568 135.637 39.7015C135.214 39.3463 134.94 38.9911 135.009 38.9091C135.077 38.8272 135.487 39.0321 135.91 39.3736C136.334 39.7152 136.621 40.0977 136.552 40.1797Z" fill="#E0E0E0"/>
<path d="M136.347 43.158C136.443 43.2263 136.183 43.6499 135.773 44.1007C135.363 44.5516 134.967 44.8384 134.885 44.7565C134.803 44.6745 135.049 44.251 135.459 43.8138C135.869 43.3766 136.265 43.0761 136.347 43.158Z" fill="#E0E0E0"/>
<mask id="path-20-inside-1_387_558" fill="white">
<path d="M16.7372 29.7687C15.2945 30.0602 13.8081 30.0602 12.3654 29.7687C13.0757 29.5695 13.8162 29.5001 14.5513 29.5638C15.2863 29.4986 16.0271 29.568 16.7372 29.7687Z"/>
</mask>
<path d="M16.7372 29.7687C15.2945 30.0602 13.8081 30.0602 12.3654 29.7687C13.0757 29.5695 13.8162 29.5001 14.5513 29.5638C15.2863 29.4986 16.0271 29.568 16.7372 29.7687Z" fill="#FFC300"/>
<path d="M16.7372 29.7687L17.7273 34.6697L18.0971 24.9572L16.7372 29.7687ZM12.3654 29.7687L11.0153 24.9544L11.3753 34.6697L12.3654 29.7687ZM14.5513 29.5638L14.1196 34.5451L14.5564 34.583L14.9932 34.5442L14.5513 29.5638ZM15.7471 24.8677C14.9578 25.0272 14.1447 25.0272 13.3555 24.8677L11.3753 34.6697C13.4714 35.0932 15.6311 35.0932 17.7273 34.6697L15.7471 24.8677ZM13.7154 34.583C13.8467 34.5462 13.9836 34.5333 14.1196 34.5451L14.983 24.5824C13.6488 24.4668 12.3048 24.5928 11.0153 24.9544L13.7154 34.583ZM14.9932 34.5442C15.1224 34.5327 15.2525 34.545 15.3773 34.5802L18.0971 24.9572C16.8016 24.591 15.4502 24.4644 14.1094 24.5833L14.9932 34.5442Z" fill="#FFC300" mask="url(#path-20-inside-1_387_558)"/>
<mask id="path-22-inside-2_387_558" fill="white">
<path d="M19.0595 23.8262C19.351 25.2919 19.351 26.8006 19.0595 28.2663C18.7679 26.8006 18.7679 25.2919 19.0595 23.8262Z"/>
</mask>
<path d="M19.0595 23.8262C19.351 25.2919 19.351 26.8006 19.0595 28.2663C18.7679 26.8006 18.7679 25.2919 19.0595 23.8262Z" fill="#FFC300"/>
<path d="M19.0595 23.8262L23.9634 22.8508H14.1555L19.0595 23.8262ZM19.0595 28.2663L14.1555 29.2417H23.9634L19.0595 28.2663ZM14.1555 24.8016C14.319 25.6233 14.319 26.4692 14.1555 27.2909L23.9634 29.2417C24.383 27.1321 24.383 24.9604 23.9634 22.8508L14.1555 24.8016ZM23.9634 27.2909C23.8 26.4692 23.8 25.6233 23.9634 24.8016L14.1555 22.8508C13.7359 24.9604 13.7359 27.1321 14.1555 29.2417L23.9634 27.2909Z" fill="#FFC300" mask="url(#path-22-inside-2_387_558)"/>
<mask id="path-24-inside-3_387_558" fill="white">
<path d="M21.5326 29.6322C22.9753 29.3407 24.4617 29.3407 25.9044 29.6322C24.4617 29.9236 22.9753 29.9236 21.5326 29.6322Z"/>
</mask>
<path d="M21.5326 29.6322C22.9753 29.3407 24.4617 29.3407 25.9044 29.6322C24.4617 29.9236 22.9753 29.9236 21.5326 29.6322Z" fill="#FFC300"/>
<path d="M21.5326 29.6322L20.5425 24.7312V34.5332L21.5326 29.6322ZM25.9044 29.6322L26.8945 34.5332V24.7312L25.9044 29.6322ZM22.5227 34.5332C23.3119 34.3737 24.1251 34.3737 24.9143 34.5332L26.8945 24.7312C24.7984 24.3077 22.6387 24.3077 20.5425 24.7312L22.5227 34.5332ZM24.9143 24.7312C24.1251 24.8906 23.3119 24.8906 22.5227 24.7312L20.5425 34.5332C22.6387 34.9566 24.7984 34.9566 26.8945 34.5332L24.9143 24.7312Z" fill="#FFC300" mask="url(#path-24-inside-3_387_558)"/>
<mask id="path-26-inside-4_387_558" fill="white">
<path d="M19.2092 35.5754C18.9177 34.1143 18.9177 32.61 19.2092 31.1489C19.5007 32.61 19.5007 34.1143 19.2092 35.5754Z"/>
</mask>
<path d="M19.2092 35.5754C18.9177 34.1143 18.9177 32.61 19.2092 31.1489C19.5007 32.61 19.5007 34.1143 19.2092 35.5754Z" fill="#FFC300"/>
<path d="M19.2092 35.5754L14.3059 36.5537H24.1126L19.2092 35.5754ZM19.2092 31.1489L24.1126 30.1707H14.3059L19.2092 31.1489ZM24.1126 34.5971C23.9499 33.7818 23.9499 32.9425 24.1126 32.1272L14.3059 30.1707C13.8855 32.2776 13.8855 34.4467 14.3059 36.5537L24.1126 34.5971ZM14.3059 32.1272C14.4685 32.9425 14.4685 33.7818 14.3059 34.5971L24.1126 36.5537C24.5329 34.4467 24.5329 32.2776 24.1126 30.1707L14.3059 32.1272Z" fill="#FFC300" mask="url(#path-26-inside-4_387_558)"/>
<path d="M22.7479 32.9798C22.6526 33.0615 22.232 32.7093 21.8102 32.1935C21.8085 32.1915 21.8069 32.1894 21.8052 32.1874C21.4123 31.7058 21.137 31.2712 21.1756 31.1454C21.1786 31.1356 21.1835 31.1277 21.1904 31.1218C21.2861 31.0398 21.6959 31.4087 22.1331 31.9142C22.1341 31.9153 22.1351 31.9164 22.136 31.9175C22.4624 32.2957 22.6892 32.7037 22.7479 32.8844C22.7581 32.9156 22.7632 32.94 22.7629 32.9564C22.7627 32.9716 22.7578 32.9798 22.7479 32.9798Z" fill="#FFC300" stroke="#FFC300" stroke-width="5"/>
<path d="M22.5433 26.2855C22.5456 26.2878 22.5476 26.2903 22.5493 26.2932C22.6084 26.3918 22.3126 26.8172 21.8875 27.2555C21.4504 27.7063 21.0132 27.9932 20.9312 27.9112C20.9289 27.909 20.9269 27.9064 20.9252 27.9036C20.8655 27.806 21.1467 27.3961 21.5824 26.9595C21.5839 26.958 21.5854 26.9565 21.587 26.9549C21.6756 26.8662 21.7633 26.7813 21.8474 26.703C22.1912 26.3834 22.4775 26.1757 22.5433 26.2855Z" fill="#FFC300" stroke="#FFC300" stroke-width="5"/>
<path d="M17.529 28.0069C17.5246 28.0122 17.5187 28.0163 17.5115 28.0193C17.4076 28.0617 17.0234 27.861 16.6273 27.5287C16.627 27.5285 16.6266 27.5282 16.6263 27.5279C16.2112 27.1796 15.9277 26.8315 15.9947 26.7283C15.9959 26.7263 15.9973 26.7245 15.9989 26.7227C16.0034 26.7174 16.009 26.713 16.0155 26.7096C16.1251 26.6519 16.5007 26.8655 16.9006 27.2009C16.9009 27.2012 16.9012 27.2014 16.9016 27.2017C17.3245 27.5567 17.6109 27.9114 17.529 28.0069Z" fill="#FFC300" stroke="#FFC300" stroke-width="5"/>
<path d="M17.3381 30.971L16.624 31.8041L16.6209 31.8077L15.9493 32.5912C16.1132 32.5499 16.4402 32.2949 16.7592 31.9331C16.7609 31.9312 16.7626 31.9293 16.7642 31.9274C17.1604 31.4765 17.42 31.053 17.3381 30.971ZM17.3381 30.971C17.3194 30.955 17.2887 30.9541 17.2484 30.9664C17.0828 31.0166 16.7555 31.2884 16.437 31.6398C16.4368 31.64 16.4366 31.6403 16.4364 31.6405C16.1474 31.9593 15.9239 32.2709 15.8611 32.448L16.5582 31.7509L16.5606 31.7485L16.6823 31.6268L17.3381 30.971Z" fill="#FFC300" stroke="#FFC300" stroke-width="5"/>
</svg>
